<svg xmlns="http://www.w3.org/2000/svg" xmlns:xlink="http://www.w3.org/1999/xlink" version="1.1" id="Layer_1" x="0px" y="0px" width="100%" viewBox="0 0 496 496" enable-background="new 0 0 496 496" xml:space="preserve" transform="matrix(1, 0, 0, 1, 0, 0)">
<path fill="#ffffff" opacity="1.000000" stroke="none" d=" M351.965271,214.832550   C354.704803,215.471283 356.294708,217.286972 356.635223,219.343704   C357.484680,224.475266 361.187988,229.032822 358.634277,234.972107   C357.299896,238.075577 358.368958,242.202469 358.304565,245.866302   C358.273468,247.636215 358.702515,249.507156 357.557953,251.099197   C354.716248,251.366562 353.821808,249.815704 353.767273,247.517624   C353.700073,244.686707 353.727539,241.853546 353.714172,239.021347   C353.709473,238.021713 353.650848,237.018799 353.710876,236.023056   C353.886780,233.105896 352.214813,231.831787 349.705353,232.462051   C345.292664,233.570328 339.257751,228.986526 336.586639,235.415970   C335.480530,238.078369 336.385742,241.666565 336.711212,244.798935   C336.899353,246.609650 337.712463,248.432816 339.999817,248.636307   C342.130249,248.825821 343.343567,247.539001 344.293762,245.818375   C345.823181,243.048981 345.633636,240.032532 345.689148,237.040497   C345.717377,235.519836 346.240265,234.459656 348.039886,234.545059   C349.436890,234.611374 350.254028,235.249756 350.261139,236.666580   C350.285858,241.592117 350.270691,246.517868 350.270691,252.099457   C346.473938,250.532501 343.469147,251.098267 340.380341,251.446762   C335.841492,251.958832 332.395813,249.050049 331.519775,244.517303   C331.236725,243.053085 331.265411,241.530014 331.006531,240.059372   C330.570831,237.584122 332.325562,234.559952 329.422943,232.717026   C327.923920,231.765305 320.892365,233.013931 317.922882,234.861649   C322.757355,234.153946 327.175781,232.955032 329.571198,237.645508   C331.163971,240.764328 328.368225,242.441681 326.754669,244.317078   C326.754669,244.769211 326.714325,245.100311 326.761353,245.418488   C327.019043,247.161499 330.183807,248.685760 327.595795,250.560791   C324.934753,252.488754 323.847412,249.568283 322.488556,248.140549   C321.023895,246.601685 319.810974,244.823242 318.146729,242.717178   C318.146729,244.431625 318.207428,245.703308 318.131378,246.966782   C318.035614,248.557785 318.461792,250.761536 316.161194,250.905869   C313.537384,251.070450 312.986847,248.943497 312.951782,246.783081   C312.900391,243.618301 312.752350,240.442383 312.945923,237.289658   C313.169250,233.651718 311.804718,231.932648 308.064545,232.358841   C307.408539,232.433609 306.733582,232.336288 306.067261,232.326752   C296.158295,232.185013 293.979736,235.055573 296.604645,244.856277   C297.089111,246.665115 297.750519,248.470306 300.012482,248.634583   C302.346741,248.804108 303.677490,247.384766 304.552246,245.408859   C305.594391,243.054840 305.584137,240.551453 305.632141,238.047989   C305.664856,236.340759 305.725677,234.542847 308.097076,234.473450   C310.288208,234.409302 311.009674,235.907959 311.015381,237.732803   C311.029724,242.318954 311.669922,246.960602 310.356567,251.914841   C306.683838,250.864792 303.368103,251.098679 299.960724,251.400528   C295.664825,251.781052 292.699127,249.343552 291.676880,245.015793   C291.296448,243.405121 291.009247,241.718353 291.041718,240.073425   C291.196136,232.245041 292.301697,232.371643 282.549316,232.409149   C275.226562,232.437317 267.900085,232.493652 260.581940,232.294052   C256.803802,232.190994 254.900452,233.415817 255.251343,237.432007   C255.468246,239.914429 255.278305,242.435532 255.547638,244.909149   C255.727783,246.563644 256.358368,248.252319 258.356567,248.609360   C260.429291,248.979691 261.839172,247.876190 262.933685,246.245468   C264.602264,243.759338 264.753143,240.959442 264.707001,238.090942   C264.680206,236.427719 264.557159,234.490631 267.041565,234.531342   C269.525513,234.572052 269.285492,236.562912 269.304169,238.185593   C269.353699,242.484756 269.320953,246.784882 269.320953,251.546158   C265.435455,250.837021 262.107239,251.151627 258.742157,251.430740   C254.317490,251.797729 250.428375,248.087357 249.918930,243.582840   C249.695389,241.606369 249.839645,239.589081 249.802048,237.590622   C249.700699,232.204208 249.582809,232.112045 243.864182,232.936447   C243.988724,234.585266 245.329514,233.644836 246.021729,233.942459   C248.810242,235.141449 249.373917,236.425186 247.223618,239.125320   C244.155502,242.977921 240.509979,245.205734 235.627090,245.554718   C235.081665,245.593704 234.575531,246.182220 233.144043,247.093140   C236.690048,247.400055 238.738052,245.824280 240.980179,245.272385   C243.754410,244.589508 246.311478,244.384201 248.241028,246.893494   C250.302963,249.574951 250.943130,252.715088 249.849930,255.865387   C248.994934,258.329224 246.410065,259.039978 244.433670,257.965515   C236.677490,253.748749 230.066986,254.857788 224.492111,262.212463   C223.091278,257.106384 224.531906,254.992279 231.375778,251.004852   C228.568161,242.512619 230.318314,236.480286 236.703262,232.999359   C234.294189,231.381302 231.036835,233.458191 228.693909,231.193726   C229.347580,228.149704 231.725876,228.853180 233.476868,228.840988   C244.801529,228.762115 256.127014,228.800583 268.241669,228.800583   C264.758789,227.249039 261.205536,229.371277 258.377686,226.234665   C268.001343,224.172424 264.665070,216.167526 266.047089,210.430283   C266.446777,208.771042 265.515686,206.730804 267.530121,205.636856   C269.577850,204.524811 271.262939,205.167953 272.853210,206.837128   C275.561371,209.679733 279.634003,209.820984 282.970581,211.484741   C285.326782,212.659637 288.964386,207.559082 288.388367,203.618546   C287.965729,200.727142 288.114563,198.487747 290.639862,196.563919   C293.013855,194.755356 291.883636,192.695145 290.302277,190.994827   C288.410583,188.960831 288.763458,187.236908 290.798431,185.215347   C293.164703,187.117142 295.655060,187.754623 298.763214,184.692108   C297.680298,200.924332 301.998474,214.455978 311.162018,227.442123   C305.758240,228.950851 299.527863,227.569153 293.517578,228.696945   C298.648804,228.696945 303.781555,228.619781 308.910706,228.722885   C312.601257,228.797043 313.260162,226.903198 312.200409,223.939209   C311.266602,221.327545 310.083923,218.804886 309.013611,216.248810   C312.989105,214.636047 313.962708,215.301666 316.240143,220.039139   C317.564056,222.793167 317.333862,226.224777 320.395233,229.550720   C320.363617,224.934921 321.752655,222.722000 325.840363,223.453629   C327.132324,223.684860 328.594757,223.215851 329.124634,224.911774   C329.946747,227.542908 327.488831,227.567444 325.236145,228.567017   C327.797638,228.567017 329.408112,228.567017 331.018585,228.567017   C330.980316,221.674301 332.358063,220.711746 338.435699,222.937103   C342.158997,224.300415 345.916199,224.007034 349.779938,222.293152   C350.334320,225.129379 351.555817,227.862717 346.392181,228.613693   C349.324463,228.658737 351.757050,229.550064 353.055603,227.569214   C354.680328,225.090805 352.267944,222.937698 351.716949,220.607330   C351.287781,218.792343 346.190796,216.771973 351.965271,214.832550  M283.737366,220.239227   C284.359863,215.081726 279.629761,214.997009 276.877625,213.081238   C275.740143,212.289459 274.567322,211.090057 272.903168,212.368698   C271.232330,213.652496 271.662323,215.237839 271.960541,216.870010   C272.248016,218.443619 272.029358,220.659500 274.346710,220.506363   C277.651093,220.287994 279.282410,222.536179 280.945709,224.490021   C283.109619,223.975174 283.105408,222.285919 283.737366,220.239227  M240.079147,250.221024   C239.370407,250.596252 238.539719,250.838867 238.333420,251.912399   C239.683792,253.390991 241.465927,254.357712 243.426636,254.507339   C245.412781,254.658905 247.219025,253.640472 247.027145,251.386841   C246.873825,249.586075 245.510132,248.444534 243.450348,248.969238   C242.492004,249.213379 241.574097,249.616241 240.079147,250.221024  M240.786392,238.681061   C239.868347,235.387787 238.009674,236.673706 236.442963,237.942276   C235.333801,238.840378 234.112976,240.199005 235.507172,241.672455   C237.050812,243.303818 238.499146,241.986191 239.755707,240.982849   C240.220917,240.611374 240.413086,239.897949 240.786392,238.681061  z"/>
<path fill="#ffffff" opacity="1.000000" stroke="none" d=" M188.597519,227.641510   C188.515671,224.669174 189.751007,223.626328 192.278809,223.786301   C194.762146,223.943481 195.235504,225.551773 195.238342,227.551361   C195.248215,234.536621 195.205307,241.522095 195.243729,248.507156   C195.258606,251.211868 194.104660,252.493637 191.331177,252.356613   C189.682358,252.275146 187.930344,252.098724 186.384613,252.533478   C182.131760,253.729675 178.805756,252.581757 176.373123,249.025726   C174.221313,245.880264 174.066177,242.473557 175.900208,239.112350   C178.022507,235.222809 181.496063,234.194260 185.653534,234.783005   C186.291595,234.873367 186.939041,234.897293 188.113129,234.997086   C188.276047,232.593277 188.429657,230.326996 188.597519,227.641510  M184.062698,240.979538   C182.062180,242.621094 181.264755,244.554031 183.709106,246.255859   C185.258118,247.334351 187.147720,246.741043 187.822815,244.876434   C188.815079,242.135818 187.361084,240.844193 184.062698,240.979538  z"/>
<path fill="#ffffff" opacity="1.000000" stroke="none" d=" M135.869766,231.921021   C131.610535,233.654892 129.502197,236.538635 130.810333,240.674744   C132.171310,244.977875 135.836823,246.450974 140.007828,245.508835   C143.126038,244.804520 145.456268,244.955170 146.000793,248.444565   C146.571503,252.101700 143.403519,252.113297 141.082260,252.630478   C134.755234,254.040161 127.971161,251.128815 124.740967,245.737518   C121.642204,240.565613 122.117500,234.524292 125.983101,229.948898   C130.019562,225.171280 137.434799,223.158966 143.270828,225.261551   C145.281143,225.985825 147.081390,226.840836 145.954971,229.544525   C145.026581,231.772903 143.756714,233.337616 141.039642,232.131531   C139.466248,231.433121 137.878098,231.117188 135.869766,231.921021  z"/>
<path fill="#ffffff" opacity="1.000000" stroke="none" d=" M216.536346,250.769852   C212.819916,253.221741 209.167328,254.015350 205.421829,252.071274   C201.581390,250.077927 199.268433,246.967224 200.097092,242.388535   C200.977707,237.522751 204.990891,234.575241 210.154465,234.671768   C214.738998,234.757477 217.850464,236.862656 218.660355,241.422592   C219.220047,244.573715 217.417297,247.480164 216.536346,250.769852  z"/>
<path fill="#ffffff" opacity="1.000000" stroke="none" d=" M154.158234,251.049286   C150.377289,247.888763 149.339111,244.146606 151.154617,240.085083   C153.085434,235.765625 156.998581,234.475052 161.502045,234.712402   C165.707550,234.934052 168.787109,236.833923 170.327728,240.848068   C172.846649,247.411179 166.642838,254.135437 159.155838,252.884048   C157.551804,252.615936 156.036118,251.819122 154.158234,251.049286  M162.902817,241.762680   C161.366211,240.109009 159.797256,240.082993 158.284851,241.754776   C157.298050,242.845535 157.154816,244.084900 157.988449,245.354767   C158.822128,246.624649 160.077972,246.956833 161.433945,246.588287   C163.727280,245.964981 163.959488,244.318695 162.902817,241.762680  z"/>
<path fill="#ffffff" opacity="1.000000" stroke="none" d=" M280.018890,189.040024   C280.069550,191.478653 280.861450,194.486496 277.601410,195.309189   C274.057312,196.203537 271.255920,194.449631 269.167908,191.727890   C269.578857,189.534042 271.653046,189.450104 273.042023,188.090134   C270.458435,186.057953 267.514252,184.452820 266.018738,181.607285   C266.388550,179.339142 268.804443,179.728897 269.712860,178.264969   C269.958099,176.600815 268.010437,175.417938 268.684753,173.264740   C272.129120,172.385895 275.120453,172.179123 274.938385,177.322281   C274.871429,179.212921 276.384827,179.764801 277.738281,180.846115   C277.999573,180.988205 277.979645,180.954895 277.979645,180.954895   C278.406799,182.598419 278.271118,184.208588 277.531067,185.722488   C276.534546,187.761124 277.932373,188.298126 279.691345,188.923370   C279.999664,189.006073 280.018890,189.040024 280.018890,189.040024  z"/>
<path fill="#ffffff" opacity="1.000000" stroke="none" d=" M272.688965,246.637604   C272.681488,245.191162 272.679016,244.197418 272.678833,243.203690   C272.677277,234.745514 275.800140,232.192154 284.172821,233.842758   C286.441406,234.290009 288.110138,235.616211 288.989594,237.735260   C289.627075,239.271194 289.034515,240.655960 287.905457,241.802109   C286.682983,243.043030 285.324219,244.156204 283.609924,242.773514   C282.071228,241.532440 281.814423,240.077667 283.531830,238.636581   C284.029388,238.219086 284.392212,237.622971 283.688965,236.334457   C275.821838,238.614365 277.982361,245.743729 276.867981,251.177612   C273.380798,251.650848 272.730133,249.677261 272.688965,246.637604  z"/>
<path fill="#ffffff" opacity="1.000000" stroke="none" d=" M293.037262,163.978165   C290.582184,165.541504 290.571838,167.609360 291.647247,170.034622   C292.530334,172.026215 292.426239,174.049881 290.573761,175.445984   C289.344482,176.372452 287.746613,176.576019 286.320801,175.756271   C284.360809,174.629364 283.821747,172.689743 283.944244,170.604202   C284.180573,166.580566 287.160248,163.308884 286.922089,158.912445   C290.871918,158.090805 292.030182,160.471588 292.918274,163.674973   C293.004761,164.009003 293.037262,163.978165 293.037262,163.978165  z"/>
<path fill="#ffffff" opacity="1.000000" stroke="none" d=" M297.241730,169.777420   C301.455231,172.183823 301.699402,176.118011 300.714691,180.101944   C300.101715,182.581863 298.413239,184.587845 295.182983,183.698517   C291.834869,182.776733 291.295898,180.407547 291.955933,177.482269   C292.486816,175.129211 294.152313,173.417755 296.002197,171.108063   C296.688080,170.340027 296.964905,170.058716 297.241730,169.777420  z"/>
<path fill="#ffffff" opacity="1.000000" stroke="none" d=" M312.056763,187.976044   C311.003845,189.292206 310.280945,190.465744 309.254608,191.234055   C307.502869,192.545441 305.605072,192.742142 303.889862,191.000641   C302.259552,189.345306 302.092865,187.433517 303.309357,185.576065   C305.211121,182.672272 308.264557,181.279449 311.453827,181.938507   C315.915497,182.860535 312.737518,185.608154 312.056763,187.976044  z"/>
<path fill="#ffffff" opacity="1.000000" stroke="none" d=" M278.012756,181.002151   C277.998230,180.853485 277.942230,180.690002 277.947113,180.528366   C278.013947,178.313873 275.540497,175.547180 278.929962,174.060883   C281.178436,173.074905 286.407532,176.639969 287.113129,179.338272   C287.725586,181.680557 287.137695,183.763199 284.854065,184.749161   C281.546295,186.177292 280.235046,183.284714 278.248596,181.178055   C277.979645,180.954895 277.999573,180.988205 278.012756,181.002151  z"/>
<path fill="#ffffff" opacity="1.000000" stroke="none" d=" M307.076599,169.498352   C305.088684,171.996140 303.074158,171.750931 301.287842,170.029831   C299.431946,168.241638 299.759583,166.060028 301.186157,164.166901   C302.690857,162.170120 304.503326,160.472321 307.756805,160.289246   C308.600342,163.307495 308.825012,166.237854 307.076599,169.498352  z"/>
<path fill="#ffffff" opacity="1.000000" stroke="none" d=" M300.987549,195.757416   C305.776001,192.783417 308.653931,193.800949 311.886932,199.449280   C309.065643,201.446182 306.065765,202.493164 302.710663,201.072739   C300.556915,200.160904 299.992584,198.305557 300.987549,195.757416  z"/>
<path fill="#ffffff" opacity="1.000000" stroke="none" d=" M310.023987,178.828354   C308.327576,181.083496 306.602478,181.881363 304.281982,180.501434   C302.785675,179.611618 302.156311,178.208542 302.628723,176.745712   C303.738708,173.308701 306.369263,171.593445 310.112854,171.009445   C311.963501,173.553787 310.965485,176.018723 310.023987,178.828354  z"/>
<path fill="#ffffff" opacity="1.000000" stroke="none" d=" M297.445129,169.499557   C296.964905,170.058716 296.688080,170.340027 296.192139,170.819748   C292.643829,170.037537 290.963013,168.230896 292.913757,164.322296   C293.037262,163.978165 293.004761,164.009003 292.991669,164.027435   C294.626495,163.231506 296.287598,160.809509 298.075806,162.535339   C300.079407,164.469040 299.116699,167.058090 297.445129,169.499557  z"/>
<path fill="#ffffff" opacity="1.000000" stroke="none" d=" M282.509033,166.605515   C283.516235,169.066345 282.539001,170.432983 280.690491,171.299255   C279.482666,171.865295 278.412048,171.334900 277.616089,170.394836   C275.796936,168.246262 275.151001,165.885727 276.308655,163.205963   C279.232208,162.825409 280.757538,164.593292 282.509033,166.605515  z"/>
<path fill="#ffffff" opacity="1.000000" stroke="none" d=" M314.028473,190.393341   C316.171021,190.704422 317.947906,190.998886 319.039398,193.042023   C317.790588,195.562317 315.727386,196.491455 313.056091,196.176590   C311.573700,196.001846 310.711578,194.962769 310.632263,193.497086   C310.521088,191.442352 311.819977,190.602158 314.028473,190.393341  z"/>
<path fill="#ffffff" opacity="1.000000" stroke="none" d=" M312.392090,175.598572   C314.766754,173.431854 317.029907,173.283142 319.728973,174.667297   C319.211212,177.855133 317.909790,180.243591 314.486389,180.219757   C311.694672,180.200333 311.426971,178.196106 312.392090,175.598572  z"/>
<path fill="#ffffff" opacity="1.000000" stroke="none" d=" M279.578003,199.811890   C279.688354,198.707550 279.765717,197.847122 280.160950,197.173111   C281.208649,195.386475 282.589813,193.958038 284.926819,194.716614   C286.124298,195.105301 286.832764,196.193207 286.694000,197.396622   C286.410431,199.855759 284.385895,200.298447 282.400604,200.656448   C281.438568,200.829926 280.448456,201.072342 279.578003,199.811890  z"/>
<path fill="#ffffff" opacity="1.000000" stroke="none" d=" M279.987000,188.991333   C279.605713,186.782791 280.713165,185.805450 282.744568,185.986115   C284.633667,186.154114 286.327820,186.963196 286.888245,188.979401   C287.303741,190.474213 286.449005,191.651413 285.140594,192.158783   C282.645782,193.126175 281.633606,191.087845 280.230347,189.283951   C280.018890,189.040024 279.999664,189.006073 279.987000,188.991333  z"/>
</svg>